<svg xmlns="http://www.w3.org/2000/svg" viewBox="0 0 64 64" width="64" height="64">
  <defs>
    <linearGradient id="bg" x1="8" y1="8" x2="56" y2="56" gradientUnits="userSpaceOnUse">
      <stop offset="0%" stop-color="#2563eb"/>
      <stop offset="100%" stop-color="#4338ca"/>
    </linearGradient>
    <filter id="shadow" x="-20%" y="-20%" width="140%" height="140%">
      <feDropShadow dx="0" dy="3" stdDeviation="3" flood-color="#0f172a" flood-opacity="0.18"/>
    </filter>
  </defs>
  <rect x="4" y="4" width="56" height="56" rx="16" fill="url(#bg)"/>
  <g filter="url(#shadow)">
    <path d="M21 12h17l10 10v24a8 8 0 0 1-8 8H21a8 8 0 0 1-8-8V20a8 8 0 0 1 8-8z" fill="#ffffff"/>
    <path d="M38 12v10h10" fill="#bfdbfe"/>
  </g>
  <rect x="21" y="20" width="13" height="5" rx="2.5" fill="#2563eb"/>
  <circle cx="23.5" cy="31.5" r="2.5" fill="#f59e0b"/>
  <rect x="29" y="29.5" width="14" height="4" rx="2" fill="#94a3b8"/>
  <circle cx="23.5" cy="39.5" r="2.5" fill="#f59e0b"/>
  <rect x="29" y="37.5" width="12" height="4" rx="2" fill="#94a3b8"/>
  <circle cx="23.5" cy="47.5" r="2.5" fill="#f59e0b"/>
  <rect x="29" y="45.5" width="9" height="4" rx="2" fill="#94a3b8"/>
  <circle cx="47" cy="45" r="8" fill="#10b981"/>
  <path d="M43.5 45l2.3 2.5 4.8-5.8" fill="none" stroke="#ffffff" stroke-linecap="round" stroke-linejoin="round" stroke-width="2.5"/>
</svg>
